<svg width="100%" viewBox="0 0 680 720" xmlns="http://www.w3.org/2000/svg">
  <defs>
    <marker id="arrow" viewBox="0 0 10 10" refX="8" refY="5" markerWidth="6" markerHeight="6" orient="auto-start-reverse">
      <path d="M2 1L8 5L2 9" fill="none" stroke="#666" stroke-width="1.5" stroke-linecap="round" stroke-linejoin="round"/>
    </marker>
    <style>
      text { font-family: Arial, sans-serif; fill: #333; }
      .th { font-size: 14px; font-weight: 700; }
      .ts { font-size: 12px; fill: #555; }
      .node-gray rect { fill: #F1EFE8; stroke: #5F5E5A; }
      .node-purple rect { fill: #EEEDFE; stroke: #534AB7; }
      .node-teal rect { fill: #E1F5EE; stroke: #0F6E56; }
      .node-blue rect { fill: #E6F1FB; stroke: #185FA5; }
      .node-amber rect { fill: #FAEEDA; stroke: #854F0B; }
      .arr { stroke: #666; stroke-width: 1.5; fill: none; }
    </style>
  </defs>

  <g class="node-gray">
    <rect x="240" y="20" width="200" height="44" rx="22" stroke-width="0.5"/>
    <text class="th" x="340" y="42" text-anchor="middle" dominant-baseline="central">Usuario accede</text>
  </g>
  <line x1="340" y1="64" x2="340" y2="100" class="arr" marker-end="url(#arrow)"/>
  <g class="node-purple">
    <rect x="230" y="100" width="220" height="56" rx="8" stroke-width="0.5"/>
    <text class="th" x="340" y="121" text-anchor="middle" dominant-baseline="central">Tiene cuenta?</text>
    <text class="ts" x="340" y="143" text-anchor="middle" dominant-baseline="central">Comprueba sesion</text>
  </g>
  <line x1="230" y1="128" x2="130" y2="128" class="arr" marker-end="url(#arrow)"/>
  <text class="ts" x="178" y="120" text-anchor="middle">No</text>
  <g class="node-teal">
    <rect x="40" y="100" width="180" height="56" rx="8" stroke-width="0.5"/>
    <text class="th" x="130" y="121" text-anchor="middle" dominant-baseline="central">Registro</text>
    <text class="ts" x="130" y="143" text-anchor="middle" dominant-baseline="central">Crea cuenta nueva</text>
  </g>
  <path d="M130 156 L130 185 L340 185 L340 156" fill="none" class="arr" marker-end="url(#arrow)"/>
  <text class="ts" x="450" y="120" text-anchor="middle">Si</text>
  <line x1="340" y1="156" x2="340" y2="200" class="arr" marker-end="url(#arrow)"/>
  <g class="node-teal">
    <rect x="230" y="200" width="220" height="44" rx="8" stroke-width="0.5"/>
    <text class="th" x="340" y="222" text-anchor="middle" dominant-baseline="central">Login</text>
  </g>
  <line x1="340" y1="244" x2="340" y2="280" class="arr" marker-end="url(#arrow)"/>
  <g class="node-blue">
    <rect x="220" y="280" width="240" height="56" rx="8" stroke-width="0.5"/>
    <text class="th" x="340" y="301" text-anchor="middle" dominant-baseline="central">Home</text>
    <text class="ts" x="340" y="323" text-anchor="middle" dominant-baseline="central">Populares, estrenos</text>
  </g>
  <line x1="340" y1="336" x2="340" y2="372" class="arr" marker-end="url(#arrow)"/>
  <g class="node-purple">
    <rect x="210" y="372" width="260" height="56" rx="8" stroke-width="0.5"/>
    <text class="th" x="340" y="393" text-anchor="middle" dominant-baseline="central">El usuario elige</text>
    <text class="ts" x="340" y="415" text-anchor="middle" dominant-baseline="central">Catalogo, recomendador, perfil</text>
  </g>
  <line x1="210" y1="400" x2="130" y2="400" class="arr" marker-end="url(#arrow)"/>
  <line x1="470" y1="400" x2="550" y2="400" class="arr" marker-end="url(#arrow)"/>
  <line x1="340" y1="428" x2="340" y2="464" class="arr" marker-end="url(#arrow)"/>
  <g class="node-teal">
    <rect x="40" y="372" width="180" height="56" rx="8" stroke-width="0.5"/>
    <text class="th" x="130" y="393" text-anchor="middle" dominant-baseline="central">Catalogo</text>
    <text class="ts" x="130" y="415" text-anchor="middle" dominant-baseline="central">Busca y filtra</text>
  </g>
  <g class="node-teal">
    <rect x="460" y="372" width="180" height="56" rx="8" stroke-width="0.5"/>
    <text class="th" x="550" y="393" text-anchor="middle" dominant-baseline="central">Recomendador</text>
    <text class="ts" x="550" y="415" text-anchor="middle" dominant-baseline="central">Animo, tiempo, compania</text>
  </g>
  <path d="M130 428 L130 492 L220 492" fill="none" class="arr" marker-end="url(#arrow)"/>
  <path d="M550 428 L550 492 L460 492" fill="none" class="arr" marker-end="url(#arrow)"/>
  <g class="node-blue">
    <rect x="220" y="464" width="240" height="56" rx="8" stroke-width="0.5"/>
    <text class="th" x="340" y="485" text-anchor="middle" dominant-baseline="central">Detalle pelicula</text>
    <text class="ts" x="340" y="507" text-anchor="middle" dominant-baseline="central">Poster, sinopsis, datos</text>
  </g>
  <line x1="340" y1="520" x2="340" y2="556" class="arr" marker-end="url(#arrow)"/>
  <g class="node-amber">
    <rect x="210" y="556" width="260" height="56" rx="8" stroke-width="0.5"/>
    <text class="th" x="340" y="577" text-anchor="middle" dominant-baseline="central">Marcar como vista</text>
    <text class="ts" x="340" y="599" text-anchor="middle" dominant-baseline="central">Guarda en historial</text>
  </g>
  <line x1="340" y1="612" x2="340" y2="648" class="arr" marker-end="url(#arrow)"/>
  <g class="node-amber">
    <rect x="210" y="648" width="260" height="44" rx="8" stroke-width="0.5"/>
    <text class="th" x="340" y="670" text-anchor="middle" dominant-baseline="central">Actualiza retos y XP</text>
  </g>
</svg>
